<svg role="img" aria-label="Fresh Island Foods" shape-rendering="geometricPrecision" xmlns="http://www.w3.org/2000/svg" xmlns:xlink="http://www.w3.org/1999/xlink" xmlns:inkscape="http://www.inkscape.org/namespaces/inkscape" version="1.1" width="2900.6" height="595.28" viewBox="0 0 2900.6 595.28">
<defs>
<clipPath id="clip_0">
<path transform="matrix(1,0,0,-1,0,595.28)" d="M0 595.28H2900.601V0H0Z"/>
</clipPath>
</defs>
<g inkscape:groupmode="layer" inkscape:label="Layer 1">
<g clip-path="url(#clip_0)">
<path transform="matrix(1,0,0,-1,487.0006,507.27525)" d="M0 0H-421.484C-439.455 0-454.023 14.568-454.023 32.539V453.865C-454.023 471.836-439.455 486.404-421.484 486.404H0C17.971 486.404 32.539 471.836 32.539 453.865V32.539C32.539 14.568 17.971 0 0 0" fill="#ed1c24"/>
<path transform="matrix(1,0,0,-1,770.9621,264.07334)" d="M0 0H-178.203C-196.174 0-210.742 14.568-210.742 32.539V210.663C-210.742 228.634-196.174 243.202-178.203 243.202H0C17.971 243.202 32.539 228.634 32.539 210.663V32.539C32.539 14.568 17.971 0 0 0" fill="#ed1c24"/>
<path transform="matrix(1,0,0,-1,995.7983,204.96732)" d="M0 0H-119.078C-137.049 0-151.617 14.568-151.617 32.539V151.557C-151.617 169.528-137.049 184.096-119.078 184.096H0C17.971 184.096 32.539 169.528 32.539 151.557V32.539C32.539 14.568 17.971 0 0 0" fill="#ed1c24"/>
<path transform="matrix(1,0,0,-1,1189.2953,173.63822)" d="M0 0H-87.739C-105.71 0-120.278 14.568-120.278 32.539V120.228C-120.278 138.199-105.71 152.767-87.739 152.767H0C17.971 152.767 32.539 138.199 32.539 120.228V32.539C32.539 14.568 17.971 0 0 0" fill="#ed1c24"/>
<path transform="matrix(1,0,0,-1,2835.0845,507.27525)" d="M0 0H-2242.326C-2260.296 0-2274.865 14.568-2274.865 32.539V193.944C-2274.865 211.915-2260.296 226.483-2242.326 226.483H0C17.971 226.483 32.539 211.915 32.539 193.944V32.539C32.539 14.568 17.971 0 0 0" fill="#121718"/>
<path transform="matrix(1,0,0,-1,598.2925,309.02113)" d="M0 0H90.646V-18.223H21.725V-74.141H85.402V-92.114H21.725V-168.252H0Z" fill="#ffffff"/>
<path transform="matrix(1,0,0,-1,732.8867,387.90486)" d="M0 0H22.225C45.448 0 60.181 12.731 60.181 31.953 60.181 53.671 44.449 63.157 21.475 63.407 10.987 63.407 3.496 62.408 0 61.41ZM-21.725 76.637C-10.738 78.884 4.994 80.132 19.977 80.132 43.2 80.132 58.183 75.888 68.671 66.402 77.161 58.913 81.906 47.43 81.906 34.449 81.906 12.232 67.922-2.496 50.192-8.487V-9.236C63.177-13.73 70.919-25.712 74.914-43.186 80.408-66.652 84.403-82.878 87.899-89.368H65.425C62.678-84.625 58.932-70.147 54.188-49.177 49.194-25.962 40.204-17.225 20.476-16.476H0V-89.368H-21.725Z" fill="#ffffff"/>
<path transform="matrix(1,0,0,-1,930.5818,398.38935)" d="M0 0H-65.425V-60.661H7.491V-78.884H-87.15V89.368H3.746V71.145H-65.425V17.973H0Z" fill="#ffffff"/>
<path transform="matrix(1,0,0,-1,960.7432,450.812)" d="M0 0C9.739-5.991 23.972-10.984 38.955-10.984 61.18-10.984 74.165 .749 74.165 17.724 74.165 33.451 65.175 42.437 42.451 51.174 14.983 60.91-1.998 75.139-1.998 98.854-1.998 125.066 19.727 144.537 52.44 144.537 69.67 144.537 82.156 140.543 89.647 136.299L83.654 118.575C78.16 121.571 66.923 126.563 51.691 126.563 28.717 126.563 19.977 112.834 19.977 101.351 19.977 85.624 30.215 77.885 53.439 68.898 81.906 57.915 96.389 44.185 96.389 19.471 96.389-6.49 77.161-28.957 37.457-28.957 21.226-28.957 3.496-24.214-5.494-18.223Z" fill="#ffffff"/>
<path transform="matrix(1,0,0,-1,1102.5531,309.02113)" d="M0 0V-70.396H81.407V0H103.381V-168.252H81.407V-89.368H0V-168.252H-21.725V0Z" fill="#ffffff"/>
<path transform="matrix(1,0,0,-1,0,595.28)" d="M1323.293 118.007H1301.568V286.259H1323.293Z" fill="#ffffff"/>
<path transform="matrix(1,0,0,-1,1353.158,450.812)" d="M0 0C9.739-5.991 23.973-10.984 38.955-10.984 61.18-10.984 74.165 .749 74.165 17.724 74.165 33.451 65.175 42.437 42.451 51.174 14.983 60.91-1.998 75.139-1.998 98.854-1.998 125.066 19.727 144.537 52.44 144.537 69.67 144.537 82.156 140.543 89.647 136.299L83.654 118.575C78.16 121.571 66.923 126.563 51.691 126.563 28.717 126.563 19.977 112.834 19.977 101.351 19.977 85.624 30.215 77.885 53.439 68.898 81.906 57.915 96.389 44.185 96.389 19.471 96.389-6.49 77.161-28.957 37.457-28.957 21.226-28.957 3.496-24.214-5.494-18.223Z" fill="#ffffff"/>
<path transform="matrix(1,0,0,-1,1473.2428,309.02113)" d="M0 0H21.725V-150.029H93.642V-168.252H0Z" fill="#ffffff"/>
<path transform="matrix(1,0,0,-1,1675.4807,407.37605)" d="M0 0-16.481 48.429C-20.227 59.412-22.724 69.398-25.221 79.133H-25.721C-28.218 69.148-30.964 58.913-34.211 48.678L-50.692 0ZM-55.187-16.975-72.667-69.897H-95.141L-37.957 98.355H-11.737L45.697-69.897H22.474L4.495-16.975Z" fill="#ffffff"/>
<path transform="matrix(1,0,0,-1,1740.7286,477.27314)" d="M0 0V168.252H23.723L77.661 83.128C90.147 63.407 99.885 45.683 107.876 28.458L108.376 28.708C106.378 51.175 105.879 71.644 105.879 97.856V168.252H126.355V0H104.38L50.942 85.374C39.205 104.097 27.968 123.318 19.478 141.541L18.729 141.292C19.977 120.073 20.477 99.853 20.477 71.894V0Z" fill="#ffffff"/>
<path transform="matrix(1,0,0,-1,1923.6146,460.04853)" d="M0 0C5.494-.998 13.485-1.248 21.975-1.248 68.422-1.248 93.643 24.714 93.643 70.147 93.892 109.838 71.418 135.051 25.471 135.051 14.234 135.051 5.744 134.053 0 132.804ZM-21.725 148.781C-8.49 150.778 7.242 152.276 24.472 152.276 55.686 152.276 77.911 145.036 92.644 131.307 107.627 117.577 116.367 98.105 116.367 70.896 116.367 43.436 107.876 20.969 92.144 5.492 76.412-10.235 50.442-18.722 17.73-18.722 2.247-18.722-10.738-17.973-21.725-16.725Z" fill="#ffffff"/>
<path transform="matrix(1,0,0,-1,2126.123,309.02113)" d="M0 0H90.646V-18.223H21.725V-74.141H85.402V-92.114H21.725V-168.252H0Z" fill="#ffffff"/>
<path transform="matrix(1,0,0,-1,2254.6998,394.1455)" d="M0 0C0-35.947 19.478-68.15 53.688-68.15 88.149-68.15 107.626-36.446 107.626 1.747 107.626 35.198 90.146 70.147 53.938 70.147 17.979 70.147 0 36.945 0 0M130.6 2.746C130.6-55.169 95.39-85.874 52.44-85.874 7.991-85.874-23.223-51.424-23.223-.499-23.223 52.922 9.988 87.87 54.937 87.87 100.884 87.87 130.6 52.672 130.6 2.746" fill="#ffffff"/>
<path transform="matrix(1,0,0,-1,2425.1507,394.1455)" d="M0 0C0-35.947 19.478-68.15 53.688-68.15 88.149-68.15 107.627-36.446 107.627 1.747 107.627 35.198 90.146 70.147 53.938 70.147 17.979 70.147 0 36.945 0 0M130.6 2.746C130.6-55.169 95.391-85.874 52.44-85.874 7.991-85.874-23.223-51.424-23.223-.499-23.223 52.922 9.989 87.87 54.937 87.87 100.884 87.87 130.6 52.672 130.6 2.746" fill="#ffffff"/>
<path transform="matrix(1,0,0,-1,2603.443,460.04853)" d="M0 0C5.494-.998 13.485-1.248 21.975-1.248 68.422-1.248 93.643 24.714 93.643 70.147 93.892 109.838 71.418 135.051 25.471 135.051 14.234 135.051 5.743 134.053 0 132.804ZM-21.725 148.781C-8.49 150.778 7.242 152.276 24.472 152.276 55.686 152.276 77.911 145.036 92.644 131.307 107.626 117.577 116.366 98.105 116.366 70.896 116.366 43.436 107.876 20.969 92.144 5.492 76.412-10.235 50.442-18.722 17.729-18.722 2.247-18.722-10.738-17.973-21.725-16.725Z" fill="#ffffff"/>
<path transform="matrix(1,0,0,-1,2738.907,450.812)" d="M0 0C9.739-5.991 23.972-10.984 38.955-10.984 61.18-10.984 74.165 .749 74.165 17.724 74.165 33.451 65.175 42.437 42.451 51.174 14.983 60.91-1.998 75.139-1.998 98.854-1.998 125.066 19.727 144.537 52.44 144.537 69.67 144.537 82.156 140.543 89.647 136.299L83.654 118.575C78.16 121.571 66.923 126.563 51.69 126.563 28.717 126.563 19.977 112.834 19.977 101.351 19.977 85.624 30.215 77.885 53.439 68.898 81.906 57.915 96.389 44.185 96.389 19.471 96.389-6.49 77.161-28.957 37.457-28.957 21.226-28.957 3.496-24.214-5.494-18.223Z" fill="#ffffff"/>
<path transform="matrix(1,0,0,-1,240.4689,56.24225)" d="M0 0C-5.548 0-10.046-4.496-10.046-10.043V-113.565-130.793C-10.046-136.34-14.543-140.836-20.092-140.836-25.64-140.836-30.137-136.34-30.137-130.793V-113.565-10.043C-30.137-4.496-34.635 0-40.183 0-45.732 0-50.229-4.496-50.229-10.043V-113.565-130.793C-50.229-136.34-54.727-140.836-60.275-140.836-65.823-140.836-70.321-136.34-70.321-130.793V-113.565-10.043C-70.321-4.496-74.818 0-80.367 0-85.915 0-90.412-4.496-90.412-10.043V-113.565-153.748-163.79C-90.412-163.79-88.529-188.13-56.544-193.545V-401.365C-56.544-410.398-49.219-417.72-40.183-417.72-31.148-417.72-23.823-410.398-23.823-401.365V-193.545C8.162-188.13 10.046-163.79 10.046-163.79V-153.748-113.565-10.043C10.046-4.496 5.548 0 0 0" fill="#ffffff"/>
<path transform="matrix(1,0,0,-1,357.6146,56.51715)" d="M0 0C-4.68 4.903-12.956 1.559-12.956-5.217V-171.862-211.064-401.09C-12.956-410.123-5.631-417.445 3.404-417.445 12.44-417.445 19.765-410.123 19.765-401.09V-211.433C20.412-210.93 20.982-210.326 21.439-209.63 27.051-201.074 44.846-170.01 44.846-120.1 44.846-70.814 21.897-22.941 0 0" fill="#ffffff"/>
<path transform="matrix(1,0,0,-1,515.1197,574.4086)" d="M0 0H-477.722C-480.163 0-482.142 1.978-482.142 4.418-482.142 6.859-480.163 8.837-477.722 8.837H0C2.441 8.837 4.42 6.859 4.42 4.418 4.42 1.978 2.441 0 0 0" fill="#ed1c24"/>
<path transform="matrix(1,0,0,-1,515.1197,557.63308)" d="M0 0H-477.722C-480.163 0-482.142 1.978-482.142 4.418-482.142 6.859-480.163 8.837-477.722 8.837H0C2.441 8.837 4.42 6.859 4.42 4.418 4.42 1.978 2.441 0 0 0" fill="#ed1c24"/>
<path transform="matrix(1,0,0,-1,515.1197,540.85757)" d="M0 0H-477.722C-480.163 0-482.142 1.978-482.142 4.418-482.142 6.859-480.163 8.837-477.722 8.837H0C2.441 8.837 4.42 6.859 4.42 4.418 4.42 1.978 2.441 0 0 0" fill="#ed1c24"/>
<path transform="matrix(1,0,0,-1,562.2601,560.10226)" d="M0 0 7.94 .772C8.418-1.893 9.387-3.849 10.849-5.099 12.31-6.348 14.281-6.973 16.762-6.973 19.39-6.973 21.371-6.417 22.704-5.305 24.036-4.194 24.702-2.894 24.702-1.405 24.702-.45 24.422 .363 23.861 1.034 23.301 1.704 22.322 2.288 20.925 2.784 19.969 3.115 17.792 3.703 14.391 4.548 10.017 5.632 6.948 6.963 5.183 8.544 2.702 10.767 1.461 13.477 1.461 16.674 1.461 18.732 2.045 20.657 3.212 22.448 4.379 24.24 6.061 25.604 8.257 26.541 10.453 27.478 13.105 27.946 16.211 27.946 21.284 27.946 25.102 26.835 27.666 24.612 30.23 22.389 31.576 19.421 31.705 15.71L23.544 15.351C23.195 17.428 22.446 18.921 21.298 19.83 20.149 20.74 18.426 21.194 16.128 21.194 13.757 21.194 11.901 20.707 10.559 19.734 9.695 19.109 9.263 18.273 9.263 17.226 9.263 16.27 9.667 15.452 10.477 14.773 11.506 13.909 14.005 13.009 17.975 12.072 21.945 11.135 24.882 10.165 26.784 9.164 28.686 8.162 30.175 6.794 31.25 5.057 32.325 3.321 32.863 1.176 32.863-1.378 32.863-3.693 32.219-5.861 30.933-7.882 29.646-9.903 27.827-11.406 25.474-12.388 23.121-13.371 20.19-13.863 16.68-13.863 11.57-13.863 7.646-12.682 4.907-10.321 2.169-7.961 .533-4.52 0 0" fill="#ffffff"/>
<path transform="matrix(1,0,0,-1,599.1323,532.84487)" d="M0 0H8.161V-21.883C8.161-25.356 8.261-27.607 8.464-28.635 8.813-30.289 9.644-31.616 10.959-32.618 12.273-33.62 14.069-34.12 16.349-34.12 18.664-34.12 20.41-33.647 21.587-32.701 22.763-31.754 23.471-30.592 23.71-29.214 23.949-27.836 24.068-25.549 24.068-22.351V0H32.229V-21.221C32.229-26.072 32.008-29.499 31.567-31.502 31.126-33.504 30.313-35.195 29.127-36.573 27.942-37.951 26.356-39.049 24.371-39.866 22.387-40.684 19.795-41.093 16.597-41.093 12.737-41.093 9.81-40.647 7.816-39.756 5.821-38.865 4.246-37.707 3.088-36.283 1.93-34.86 1.167-33.366 .799-31.805 .266-29.49 0-26.072 0-21.552Z" fill="#ffffff"/>
<path transform="matrix(1,0,0,-1,645.7068,539.6796)" d="M0 0V-11.465H4.466C7.683-11.465 9.833-11.254 10.918-10.831 12.002-10.409 12.852-9.747 13.468-8.847 14.083-7.947 14.391-6.9 14.391-5.705 14.391-4.236 13.959-3.023 13.096-2.067 12.231-1.112 11.138-.514 9.815-.276 8.841-.092 6.883 0 3.942 0ZM-8.16-33.569V6.835H4.935C9.897 6.835 13.132 6.633 14.639 6.229 16.955 5.622 18.894 4.304 20.457 2.274 22.019 .243 22.8-2.38 22.8-5.595 22.8-8.075 22.349-10.161 21.449-11.851 20.548-13.542 19.404-14.869 18.017-15.834 16.629-16.798 15.218-17.437 13.785-17.749 11.836-18.135 9.015-18.328 5.321-18.328H0V-33.569Z" fill="#ffffff"/>
<path transform="matrix(1,0,0,-1,680.03,539.6796)" d="M0 0V-11.465H4.466C7.683-11.465 9.833-11.254 10.918-10.831 12.002-10.409 12.852-9.747 13.468-8.847 14.083-7.947 14.391-6.9 14.391-5.705 14.391-4.236 13.959-3.023 13.095-2.067 12.231-1.112 11.138-.514 9.815-.276 8.84-.092 6.883 0 3.942 0ZM-8.161-33.569V6.835H4.935C9.897 6.835 13.132 6.633 14.639 6.229 16.955 5.622 18.894 4.304 20.457 2.274 22.019 .243 22.8-2.38 22.8-5.595 22.8-8.075 22.349-10.161 21.449-11.851 20.548-13.542 19.404-14.869 18.017-15.834 16.629-16.798 15.218-17.437 13.785-17.749 11.837-18.135 9.015-18.328 5.321-18.328H0V-33.569Z" fill="#ffffff"/>
<path transform="matrix(1,0,0,-1,706.2886,573.2484)" d="M0 0V40.073H8.161V6.807H28.452V0Z" fill="#ffffff"/>
<path transform="matrix(1,0,0,-1,0,595.28)" d="M737.56 62.435H745.721V22.031002H737.56Z" fill="#ffffff"/>
<path transform="matrix(1,0,0,-1,751.6208,573.2484)" d="M0 0V40.404H29.968V33.569H8.16V24.612H28.452V17.804H8.16V6.807H30.74V0Z" fill="#ffffff"/>
<path transform="matrix(1,0,0,-1,795.1765,549.93228)" d="M0 0H6.038C9.953 0 12.397 .165 13.371 .496 14.345 .827 15.108 1.396 15.66 2.205 16.211 3.013 16.487 4.024 16.487 5.237 16.487 6.596 16.124 7.694 15.398 8.53 14.671 9.366 13.647 9.894 12.324 10.115 11.662 10.207 9.677 10.253 6.369 10.253H0ZM-8.161-23.316V17.087H9.015C13.334 17.087 16.473 16.725 18.43 15.999 20.388 15.273 21.955 13.983 23.131 12.127 24.307 10.271 24.895 8.148 24.895 5.76 24.895 2.728 24.004 .225 22.221-1.75 20.438-3.725 17.773-4.971 14.226-5.485 15.99-6.514 17.447-7.644 18.596-8.875 19.744-10.105 21.293-12.292 23.241-15.434L28.176-23.316H18.416L12.516-14.524C10.421-11.382 8.988-9.403 8.216-8.585 7.444-7.768 6.626-7.207 5.762-6.904 4.898-6.601 3.529-6.449 1.654-6.449H0V-23.316Z" fill="#ffffff"/>
<path transform="matrix(1,0,0,-1,822.551,560.10226)" d="M0 0 7.94 .772C8.418-1.893 9.388-3.849 10.849-5.099 12.31-6.348 14.281-6.973 16.763-6.973 19.39-6.973 21.371-6.417 22.704-5.305 24.036-4.194 24.703-2.894 24.703-1.405 24.703-.45 24.422 .363 23.861 1.034 23.301 1.704 22.322 2.288 20.926 2.784 19.97 3.115 17.792 3.703 14.391 4.548 10.017 5.632 6.948 6.963 5.183 8.544 2.702 10.767 1.461 13.477 1.461 16.674 1.461 18.732 2.045 20.657 3.212 22.448 4.379 24.24 6.061 25.604 8.257 26.541 10.453 27.478 13.105 27.946 16.211 27.946 21.284 27.946 25.102 26.835 27.666 24.612 30.23 22.389 31.576 19.421 31.705 15.71L23.545 15.351C23.195 17.428 22.446 18.921 21.298 19.83 20.149 20.74 18.426 21.194 16.128 21.194 13.757 21.194 11.901 20.707 10.559 19.734 9.695 19.109 9.264 18.273 9.264 17.226 9.264 16.27 9.668 15.452 10.476 14.773 11.506 13.909 14.005 13.009 17.975 12.072 21.946 11.135 24.882 10.165 26.784 9.164 28.686 8.162 30.175 6.794 31.25 5.057 32.326 3.321 32.863 1.176 32.863-1.378 32.863-3.693 32.22-5.861 30.933-7.882 29.646-9.903 27.827-11.406 25.474-12.388 23.122-13.371 20.19-13.863 16.68-13.863 11.57-13.863 7.646-12.682 4.907-10.321 2.169-7.961 .533-4.52 0 0" fill="#ffffff"/>
<path transform="matrix(1,0,0,-1,882.2363,553.01907)" d="M0 0C0-4.575 1.057-8.043 3.17-10.404 5.284-12.765 7.967-13.946 11.221-13.946 14.474-13.946 17.144-12.774 19.229-10.432 21.315-8.089 22.359-4.575 22.359 .111 22.359 4.741 21.343 8.195 19.312 10.473 17.281 12.751 14.584 13.891 11.221 13.891 7.857 13.891 5.146 12.737 3.088 10.432 1.029 8.126 0 4.648 0 0M-8.409-.275C-8.409 3.84-7.793 7.294-6.562 10.087-5.643 12.145-4.388 13.991-2.798 15.627-1.209 17.262 .533 18.475 2.426 19.265 4.944 20.33 7.848 20.863 11.138 20.863 17.093 20.863 21.858 19.017 25.433 15.324 29.008 11.631 30.795 6.495 30.795-.083 30.795-6.605 29.021-11.709 25.474-15.393 21.927-19.077 17.185-20.919 11.248-20.919 5.238-20.919 .459-19.086-3.088-15.42-6.635-11.755-8.409-6.707-8.409-.275" fill="#ffffff"/>
<path transform="matrix(1,0,0,-1,917.3377,573.2484)" d="M0 0V40.404H27.708V33.569H8.161V24.005H25.033V17.17H8.161V0Z" fill="#ffffff"/>
<path transform="matrix(1,0,0,-1,990.8351,558.39358)" d="M0 0 7.913-2.508C6.7-6.917 4.682-10.193 1.861-12.333-.961-14.474-4.54-15.544-8.877-15.544-14.244-15.544-18.655-13.711-22.111-10.046-25.567-6.38-27.294-1.369-27.294 4.989-27.294 11.713-25.557 16.936-22.083 20.657-18.609 24.378-14.042 26.238-8.381 26.238-3.437 26.238 .579 24.777 3.667 21.856 5.504 20.129 6.883 17.648 7.802 14.414L-.276 12.485C-.754 14.58-1.751 16.234-3.267 17.446-4.783 18.659-6.626 19.265-8.795 19.265-11.791 19.265-14.222 18.19-16.087 16.04-17.953 13.891-18.885 10.409-18.885 5.595-18.885 .487-17.966-3.151-16.128-5.319-14.291-7.487-11.901-8.571-8.96-8.571-6.791-8.571-4.926-7.882-3.364-6.504-1.802-5.126-.68-2.958 0 0" fill="#ffffff"/>
<path transform="matrix(1,0,0,-1,1002.8135,573.2484)" d="M0 0V40.404H8.161V24.501H24.151V40.404H32.312V0H24.151V17.666H8.161V0Z" fill="#ffffff"/>
<path transform="matrix(1,0,0,-1,0,595.28)" d="M1041.207 62.435H1049.368V22.031002H1041.207Z" fill="#ffffff"/>
<path transform="matrix(1,0,0,-1,1055.3643,573.2484)" d="M0 0V40.073H8.161V6.807H28.452V0Z" fill="#ffffff"/>
<path transform="matrix(1,0,0,-1,1086.8612,573.2484)" d="M0 0V40.073H8.161V6.807H28.452V0Z" fill="#ffffff"/>
<path transform="matrix(1,0,0,-1,1118.2621,573.2484)" d="M0 0V40.404H29.968V33.569H8.161V24.612H28.452V17.804H8.161V6.807H30.74V0Z" fill="#ffffff"/>
<path transform="matrix(1,0,0,-1,1161.7966,539.6796)" d="M0 0V-26.762H6.093C8.372-26.762 10.017-26.633 11.028-26.376 12.351-26.045 13.449-25.485 14.322-24.694 15.195-23.905 15.908-22.604 16.459-20.795 17.01-18.985 17.286-16.518 17.286-13.395 17.286-10.271 17.01-7.873 16.459-6.201 15.908-4.529 15.136-3.225 14.143-2.288 13.151-1.351 11.892-.716 10.366-.386 9.226-.129 6.993 0 3.667 0ZM-8.161 6.835H6.755C10.118 6.835 12.682 6.578 14.446 6.063 16.818 5.365 18.848 4.125 20.539 2.342 22.23 .56 23.517-1.622 24.399-4.203 25.281-6.785 25.722-9.968 25.722-13.753 25.722-17.079 25.309-19.945 24.482-22.352 23.471-25.291 22.028-27.671 20.153-29.49 18.738-30.868 16.827-31.943 14.419-32.715 12.617-33.284 10.21-33.569 7.196-33.569H-8.161Z" fill="#ffffff"/>
<path transform="matrix(1,0,0,-1,1222.309,546.349)" d="M0 0 2.095 1.598C3.639 2.792 4.411 3.977 4.411 5.153 4.411 6.146 4.039 6.991 3.294 7.689 2.55 8.387 1.544 8.737 .275 8.737-.956 8.737-1.921 8.429-2.619 7.813-3.318 7.197-3.667 6.486-3.667 5.677-3.667 4.722-3.079 3.564-1.903 2.205ZM-3.033-8.406C-4.816-9.307-6.148-10.391-7.031-11.659-7.913-12.926-8.354-14.222-8.354-15.545-8.354-17.217-7.807-18.581-6.714-19.637-5.62-20.694-4.154-21.222-2.316-21.222-1.103-21.222 .064-20.984 1.185-20.505 2.306-20.028 3.529-19.238 4.852-18.135ZM21.091-21.966 16.404-27.947C14.106-26.826 11.9-25.283 9.787-23.317 8.151-24.787 6.414-25.87 4.576-26.569 2.738-27.267 .551-27.616-1.985-27.616-7.021-27.616-10.807-26.202-13.344-23.372-15.311-21.186-16.294-18.669-16.294-15.82-16.294-13.229-15.522-10.9-13.978-8.833-12.434-6.767-10.128-4.971-7.058-3.445-8.437-1.81-9.475-.253-10.173 1.226-10.872 2.705-11.221 4.106-11.221 5.429-11.221 7.872-10.242 9.944-8.285 11.644-6.328 13.344-3.538 14.193 .083 14.193 3.574 14.193 6.304 13.302 8.271 11.52 10.237 9.738 11.221 7.56 11.221 4.988 11.221 3.353 10.733 1.8 9.759 .331 8.785-1.139 6.819-2.802 3.86-4.658L9.484-12.072C10.145-10.896 10.715-9.362 11.193-7.469L18.196-9.068C17.497-11.548 16.89-13.363 16.376-14.511 15.861-15.659 15.31-16.619 14.722-17.391 15.586-18.2 16.702-19.086 18.072-20.051 19.441-21.015 20.447-21.654 21.091-21.966" fill="#ffffff"/>
<path transform="matrix(1,0,0,-1,1261.6749,573.2484)" d="M0 0V40.404H27.707V33.569H8.161V24.005H25.033V17.17H8.161V0Z" fill="#ffffff"/>
<path transform="matrix(1,0,0,-1,1300.8984,549.93228)" d="M0 0H6.038C9.953 0 12.397 .165 13.371 .496 14.345 .827 15.108 1.396 15.66 2.205 16.211 3.013 16.487 4.024 16.487 5.237 16.487 6.596 16.124 7.694 15.398 8.53 14.671 9.366 13.647 9.894 12.324 10.115 11.662 10.207 9.677 10.253 6.369 10.253H0ZM-8.161-23.316V17.087H9.015C13.334 17.087 16.473 16.725 18.43 15.999 20.388 15.273 21.955 13.983 23.131 12.127 24.307 10.271 24.896 8.148 24.896 5.76 24.896 2.728 24.004 .225 22.221-1.75 20.438-3.725 17.773-4.971 14.226-5.485 15.99-6.514 17.447-7.644 18.596-8.875 19.744-10.105 21.293-12.292 23.241-15.434L28.176-23.316H18.417L12.517-14.524C10.421-11.382 8.988-9.403 8.216-8.585 7.444-7.768 6.626-7.207 5.762-6.904 4.898-6.601 3.529-6.449 1.654-6.449H0V-23.316Z" fill="#ffffff"/>
<path transform="matrix(1,0,0,-1,1336.898,553.01907)" d="M0 0C0-4.575 1.057-8.043 3.17-10.404 5.284-12.765 7.968-13.946 11.221-13.946 14.474-13.946 17.144-12.774 19.229-10.432 21.315-8.089 22.359-4.575 22.359 .111 22.359 4.741 21.343 8.195 19.312 10.473 17.281 12.751 14.584 13.891 11.221 13.891 7.857 13.891 5.146 12.737 3.088 10.432 1.029 8.126 0 4.648 0 0M-8.409-.275C-8.409 3.84-7.793 7.294-6.562 10.087-5.643 12.145-4.388 13.991-2.798 15.627-1.209 17.262 .533 18.475 2.426 19.265 4.944 20.33 7.848 20.863 11.138 20.863 17.093 20.863 21.858 19.017 25.433 15.324 29.007 11.631 30.795 6.495 30.795-.083 30.795-6.605 29.021-11.709 25.474-15.393 21.927-19.077 17.185-20.919 11.248-20.919 5.238-20.919 .459-19.086-3.088-15.42-6.635-11.755-8.409-6.707-8.409-.275" fill="#ffffff"/>
<path transform="matrix(1,0,0,-1,1367.8501,573.2484)" d="M0 0V7.359L21.229 33.569H2.399V40.404H31.981V34.065L9.842 6.807H32.835V0Z" fill="#ffffff"/>
<path transform="matrix(1,0,0,-1,1403.9439,573.2484)" d="M0 0V40.404H29.968V33.569H8.161V24.612H28.452V17.804H8.161V6.807H30.74V0Z" fill="#ffffff"/>
<path transform="matrix(1,0,0,-1,1439.3662,573.2484)" d="M0 0V40.404H7.94L24.482 13.422V40.404H32.063V0H23.875L7.582 26.348V0Z" fill="#ffffff"/>
<path transform="matrix(1,0,0,-1,1493.3164,573.2484)" d="M0 0V40.404H27.708V33.569H8.161V24.005H25.034V17.17H8.161V0Z" fill="#ffffff"/>
<path transform="matrix(1,0,0,-1,1530.5813,553.01907)" d="M0 0C0-4.575 1.057-8.043 3.17-10.404 5.284-12.765 7.968-13.946 11.221-13.946 14.474-13.946 17.144-12.774 19.23-10.432 21.315-8.089 22.359-4.575 22.359 .111 22.359 4.741 21.343 8.195 19.313 10.473 17.281 12.751 14.584 13.891 11.221 13.891 7.857 13.891 5.146 12.737 3.088 10.432 1.029 8.126 0 4.648 0 0M-8.409-.275C-8.409 3.84-7.793 7.294-6.562 10.087-5.643 12.145-4.388 13.991-2.798 15.627-1.209 17.262 .533 18.475 2.426 19.265 4.944 20.33 7.848 20.863 11.138 20.863 17.093 20.863 21.858 19.017 25.433 15.324 29.007 11.631 30.795 6.495 30.795-.083 30.795-6.605 29.021-11.709 25.474-15.393 21.927-19.077 17.185-20.919 11.249-20.919 5.238-20.919 .459-19.086-3.088-15.42-6.635-11.755-8.409-6.707-8.409-.275" fill="#ffffff"/>
<path transform="matrix(1,0,0,-1,1572.2185,553.01907)" d="M0 0C0-4.575 1.057-8.043 3.17-10.404 5.284-12.765 7.968-13.946 11.221-13.946 14.474-13.946 17.144-12.774 19.23-10.432 21.316-8.089 22.359-4.575 22.359 .111 22.359 4.741 21.343 8.195 19.313 10.473 17.281 12.751 14.584 13.891 11.221 13.891 7.857 13.891 5.146 12.737 3.088 10.432 1.029 8.126 0 4.648 0 0M-8.409-.275C-8.409 3.84-7.793 7.294-6.561 10.087-5.642 12.145-4.388 13.991-2.798 15.627-1.209 17.262 .533 18.475 2.426 19.265 4.944 20.33 7.848 20.863 11.138 20.863 17.093 20.863 21.858 19.017 25.433 15.324 29.007 11.631 30.795 6.495 30.795-.083 30.795-6.605 29.021-11.709 25.474-15.393 21.927-19.077 17.185-20.919 11.249-20.919 5.238-20.919 .459-19.086-3.088-15.42-6.635-11.755-8.409-6.707-8.409-.275" fill="#ffffff"/>
<path transform="matrix(1,0,0,-1,1615.4321,539.6796)" d="M0 0V-26.762H6.093C8.372-26.762 10.017-26.633 11.028-26.376 12.351-26.045 13.449-25.485 14.322-24.694 15.195-23.905 15.908-22.604 16.459-20.795 17.01-18.985 17.286-16.518 17.286-13.395 17.286-10.271 17.01-7.873 16.459-6.201 15.908-4.529 15.136-3.225 14.143-2.288 13.151-1.351 11.891-.716 10.366-.386 9.226-.129 6.993 0 3.667 0ZM-8.161 6.835H6.754C10.118 6.835 12.682 6.578 14.446 6.063 16.818 5.365 18.848 4.125 20.539 2.342 22.23 .56 23.517-1.622 24.399-4.203 25.281-6.785 25.722-9.968 25.722-13.753 25.722-17.079 25.309-19.945 24.482-22.352 23.471-25.291 22.028-27.671 20.153-29.49 18.738-30.868 16.827-31.943 14.419-32.715 12.617-33.284 10.21-33.569 7.196-33.569H-8.161Z" fill="#ffffff"/>
<path transform="matrix(1,0,0,-1,1643.3753,560.10226)" d="M0 0 7.94 .772C8.418-1.893 9.387-3.849 10.849-5.099 12.31-6.348 14.282-6.973 16.763-6.973 19.391-6.973 21.371-6.417 22.704-5.305 24.036-4.194 24.702-2.894 24.702-1.405 24.702-.45 24.422 .363 23.862 1.034 23.301 1.704 22.322 2.288 20.925 2.784 19.969 3.115 17.792 3.703 14.392 4.548 10.017 5.632 6.948 6.963 5.184 8.544 2.702 10.767 1.461 13.477 1.461 16.674 1.461 18.732 2.045 20.657 3.212 22.448 4.379 24.24 6.061 25.604 8.257 26.541 10.453 27.478 13.105 27.946 16.211 27.946 21.284 27.946 25.102 26.835 27.666 24.612 30.23 22.389 31.577 19.421 31.705 15.71L23.545 15.351C23.195 17.428 22.447 18.921 21.298 19.83 20.149 20.74 18.426 21.194 16.128 21.194 13.758 21.194 11.901 20.707 10.559 19.734 9.695 19.109 9.263 18.273 9.263 17.226 9.263 16.27 9.667 15.452 10.477 14.773 11.506 13.909 14.006 13.009 17.975 12.072 21.946 11.135 24.882 10.165 26.784 9.164 28.686 8.162 30.175 6.794 31.25 5.057 32.326 3.321 32.863 1.176 32.863-1.378 32.863-3.693 32.219-5.861 30.933-7.882 29.647-9.903 27.827-11.406 25.474-12.388 23.122-13.371 20.19-13.863 16.68-13.863 11.57-13.863 7.646-12.682 4.908-10.321 2.169-7.961 .533-4.52 0 0" fill="#ffffff"/>
<path transform="matrix(1,0,0,-1,1705.404,573.2484)" d="M0 0V33.569H-11.993V40.404H20.126V33.569H8.161V0Z" fill="#ffffff"/>
<path transform="matrix(1,0,0,-1,1734.1511,553.01907)" d="M0 0C0-4.575 1.057-8.043 3.171-10.404 5.284-12.765 7.968-13.946 11.221-13.946 14.474-13.946 17.144-12.774 19.23-10.432 21.316-8.089 22.359-4.575 22.359 .111 22.359 4.741 21.343 8.195 19.313 10.473 17.282 12.751 14.584 13.891 11.221 13.891 7.857 13.891 5.146 12.737 3.088 10.432 1.029 8.126 0 4.648 0 0M-8.409-.275C-8.409 3.84-7.793 7.294-6.562 10.087-5.642 12.145-4.388 13.991-2.798 15.627-1.208 17.262 .533 18.475 2.426 19.265 4.944 20.33 7.848 20.863 11.138 20.863 17.094 20.863 21.858 19.017 25.433 15.324 29.008 11.631 30.795 6.495 30.795-.083 30.795-6.605 29.021-11.709 25.474-15.393 21.927-19.077 17.185-20.919 11.249-20.919 5.238-20.919 .459-19.086-3.088-15.42-6.635-11.755-8.409-6.707-8.409-.275" fill="#ffffff"/>
<path transform="matrix(1,0,0,-1,1793.6161,573.2484)" d="M0 0V33.569H-11.993V40.404H20.125V33.569H8.16V0Z" fill="#ffffff"/>
<path transform="matrix(1,0,0,-1,1816.4434,573.2484)" d="M0 0V40.404H8.161V24.501H24.151V40.404H32.312V0H24.151V17.666H8.161V0Z" fill="#ffffff"/>
<path transform="matrix(1,0,0,-1,1854.9834,573.2484)" d="M0 0V40.404H29.968V33.569H8.161V24.612H28.452V17.804H8.161V6.807H30.74V0Z" fill="#ffffff"/>
<path transform="matrix(1,0,0,-1,1931.7062,558.39358)" d="M0 0 7.913-2.508C6.699-6.917 4.682-10.193 1.861-12.333-.96-14.474-4.54-15.544-8.877-15.544-14.244-15.544-18.655-13.711-22.111-10.046-25.566-6.38-27.294-1.369-27.294 4.989-27.294 11.713-25.557 16.936-22.083 20.657-18.609 24.378-14.042 26.238-8.381 26.238-3.437 26.238 .579 24.777 3.667 21.856 5.505 20.129 6.883 17.648 7.802 14.414L-.276 12.485C-.753 14.58-1.751 16.234-3.267 17.446-4.783 18.659-6.626 19.265-8.794 19.265-11.79 19.265-14.222 18.19-16.086 16.04-17.952 13.891-18.885 10.409-18.885 5.595-18.885 .487-17.966-3.151-16.128-5.319-14.29-7.487-11.901-8.571-8.96-8.571-6.792-8.571-4.926-7.882-3.363-6.504-1.801-5.126-.68-2.958 0 0" fill="#ffffff"/>
<path transform="matrix(1,0,0,-1,1964.4463,557.2633)" d="M0 0-5.569 14.993-11.027 0ZM15.026-15.985H6.148L2.619-6.807H-13.536L-16.872-15.985H-25.529L-9.787 24.419H-1.158Z" fill="#ffffff"/>
<path transform="matrix(1,0,0,-1,1985.8573,573.2484)" d="M0 0V33.569H-11.993V40.404H20.125V33.569H8.161V0Z" fill="#ffffff"/>
<path transform="matrix(1,0,0,-1,2008.6913,573.2484)" d="M0 0V40.404H29.968V33.569H8.161V24.612H28.452V17.804H8.161V6.807H30.74V0Z" fill="#ffffff"/>
<path transform="matrix(1,0,0,-1,2052.247,549.93228)" d="M0 0H6.038C9.953 0 12.396 .165 13.371 .496 14.346 .827 15.108 1.396 15.66 2.205 16.211 3.013 16.487 4.024 16.487 5.237 16.487 6.596 16.124 7.694 15.398 8.53 14.671 9.366 13.647 9.894 12.324 10.115 11.662 10.207 9.677 10.253 6.369 10.253H0ZM-8.161-23.316V17.087H9.015C13.334 17.087 16.473 16.725 18.431 15.999 20.388 15.273 21.955 13.983 23.131 12.127 24.307 10.271 24.896 8.148 24.896 5.76 24.896 2.728 24.004 .225 22.221-1.75 20.438-3.725 17.773-4.971 14.226-5.485 15.991-6.514 17.447-7.644 18.596-8.875 19.744-10.105 21.293-12.292 23.241-15.434L28.176-23.316H18.417L12.516-14.524C10.421-11.382 8.987-9.403 8.216-8.585 7.444-7.768 6.626-7.207 5.762-6.904 4.898-6.601 3.529-6.449 1.654-6.449H0V-23.316Z" fill="#ffffff"/>
<path transform="matrix(1,0,0,-1,0,595.28)" d="M2082.604 62.435H2090.765V22.031002H2082.604Z" fill="#ffffff"/>
<path transform="matrix(1,0,0,-1,2096.6859,573.2484)" d="M0 0V40.404H7.94L24.482 13.422V40.404H32.063V0H23.875L7.582 26.348V0Z" fill="#ffffff"/>
<path transform="matrix(1,0,0,-1,2153.5325,558.39358)" d="M0 0V6.808H17.59V-9.288C15.88-10.941 13.403-12.398 10.159-13.656 6.916-14.914 3.63-15.544 .303-15.544-3.924-15.544-7.609-14.658-10.752-12.884-13.895-11.112-16.257-8.576-17.837-5.277-19.418-1.98-20.208 1.608-20.208 5.485-20.208 9.692-19.326 13.431-17.562 16.702-15.798 19.972-13.215 22.48-9.815 24.226-7.223 25.567-3.997 26.238-.137 26.238 4.88 26.238 8.8 25.186 11.621 23.082 14.442 20.978 16.257 18.07 17.066 14.36L8.961 12.844C8.39 14.828 7.32 16.394 5.748 17.542 4.177 18.691 2.215 19.265-.137 19.265-3.704 19.265-6.538 18.135-8.643 15.875-10.747 13.615-11.799 10.262-11.799 5.816-11.799 1.02-10.734-2.576-8.601-4.974-6.469-7.372-3.676-8.571-.22-8.571 1.489-8.571 3.203-8.236 4.921-7.565 6.64-6.895 8.114-6.082 9.346-5.126V0Z" fill="#ffffff"/>
<path transform="matrix(1,0,0,-1,0,595.28)" d="M2191.603 62.435H2199.764V22.031002H2191.603Z" fill="#ffffff"/>
<path transform="matrix(1,0,0,-1,2205.6846,573.2484)" d="M0 0V40.404H7.94L24.482 13.422V40.404H32.063V0H23.875L7.582 26.348V0Z" fill="#ffffff"/>
<path transform="matrix(1,0,0,-1,2252.2069,539.6796)" d="M0 0V-26.762H6.093C8.372-26.762 10.017-26.633 11.028-26.376 12.351-26.045 13.449-25.485 14.322-24.694 15.195-23.905 15.907-22.604 16.459-20.795 17.011-18.985 17.286-16.518 17.286-13.395 17.286-10.271 17.011-7.873 16.459-6.201 15.907-4.529 15.135-3.225 14.143-2.288 13.151-1.351 11.891-.716 10.366-.386 9.226-.129 6.993 0 3.667 0ZM-8.161 6.835H6.754C10.118 6.835 12.682 6.578 14.446 6.063 16.817 5.365 18.848 4.125 20.539 2.342 22.23 .56 23.517-1.622 24.399-4.203 25.281-6.785 25.722-9.968 25.722-13.753 25.722-17.079 25.309-19.945 24.482-22.352 23.47-25.291 22.028-27.671 20.153-29.49 18.738-30.868 16.827-31.943 14.419-32.715 12.618-33.284 10.21-33.569 7.196-33.569H-8.161Z" fill="#ffffff"/>
<path transform="matrix(1,0,0,-1,2282.2137,532.84487)" d="M0 0H8.161V-21.883C8.161-25.356 8.261-27.607 8.463-28.635 8.813-30.289 9.645-31.616 10.959-32.618 12.272-33.62 14.07-34.12 16.348-34.12 18.664-34.12 20.411-33.647 21.587-32.701 22.763-31.754 23.47-30.592 23.71-29.214 23.948-27.836 24.068-25.549 24.068-22.351V0H32.229V-21.221C32.229-26.072 32.008-29.499 31.567-31.502 31.126-33.504 30.312-35.195 29.127-36.573 27.942-37.951 26.357-39.049 24.372-39.866 22.386-40.684 19.795-41.093 16.597-41.093 12.737-41.093 9.81-40.647 7.815-39.756 5.821-38.865 4.246-37.707 3.088-36.283 1.93-34.86 1.167-33.366 .8-31.805 .266-29.49 0-26.072 0-21.552Z" fill="#ffffff"/>
<path transform="matrix(1,0,0,-1,2318.148,560.10226)" d="M0 0 7.94 .772C8.417-1.893 9.387-3.849 10.849-5.099 12.31-6.348 14.281-6.973 16.762-6.973 19.39-6.973 21.371-6.417 22.703-5.305 24.036-4.194 24.702-2.894 24.702-1.405 24.702-.45 24.421 .363 23.861 1.034 23.3 1.704 22.321 2.288 20.925 2.784 19.969 3.115 17.791 3.703 14.391 4.548 10.017 5.632 6.948 6.963 5.182 8.544 2.701 10.767 1.461 13.477 1.461 16.674 1.461 18.732 2.044 20.657 3.212 22.448 4.378 24.24 6.06 25.604 8.257 26.541 10.453 27.478 13.104 27.946 16.211 27.946 21.283 27.946 25.102 26.835 27.666 24.612 30.23 22.389 31.576 19.421 31.705 15.71L23.544 15.351C23.195 17.428 22.445 18.921 21.297 19.83 20.148 20.74 18.426 21.194 16.128 21.194 13.757 21.194 11.901 20.707 10.559 19.734 9.695 19.109 9.263 18.273 9.263 17.226 9.263 16.27 9.667 15.452 10.476 14.773 11.505 13.909 14.005 13.009 17.975 12.072 21.945 11.135 24.881 10.165 26.784 9.164 28.686 8.162 30.175 6.794 31.25 5.057 32.325 3.321 32.863 1.176 32.863-1.378 32.863-3.693 32.219-5.861 30.933-7.882 29.646-9.903 27.826-11.406 25.474-12.388 23.121-13.371 20.189-13.863 16.679-13.863 11.569-13.863 7.646-12.682 4.907-10.321 2.168-7.961 .532-4.52 0 0" fill="#ffffff"/>
<path transform="matrix(1,0,0,-1,2364.1053,573.2484)" d="M0 0V33.569H-11.993V40.404H20.125V33.569H8.16V0Z" fill="#ffffff"/>
<path transform="matrix(1,0,0,-1,2395.0933,549.93228)" d="M0 0H6.038C9.952 0 12.397 .165 13.371 .496 14.345 .827 15.108 1.396 15.66 2.205 16.21 3.013 16.486 4.024 16.486 5.237 16.486 6.596 16.124 7.694 15.397 8.53 14.671 9.366 13.646 9.894 12.324 10.115 11.662 10.207 9.677 10.253 6.368 10.253H0ZM-8.161-23.316V17.087H9.015C13.334 17.087 16.473 16.725 18.43 15.999 20.387 15.273 21.954 13.983 23.131 12.127 24.307 10.271 24.895 8.148 24.895 5.76 24.895 2.728 24.003 .225 22.221-1.75 20.438-3.725 17.773-4.971 14.226-5.485 15.99-6.514 17.446-7.644 18.595-8.875 19.744-10.105 21.293-12.292 23.241-15.434L28.176-23.316H18.417L12.517-14.524C10.421-11.382 8.988-9.403 8.216-8.585 7.444-7.768 6.626-7.207 5.762-6.904 4.898-6.601 3.529-6.449 1.654-6.449H0V-23.316Z" fill="#ffffff"/>
<path transform="matrix(1,0,0,-1,2434.3873,573.2484)" d="M0 0V17.005L-14.805 40.404H-5.238L4.274 24.419 13.592 40.404H22.993L8.134 16.95V0Z" fill="#ffffff"/>
<path transform="matrix(1,0,0,-1,2863.2034,574.4086)" d="M0 0H-376.833C-379.274 0-381.253 1.978-381.253 4.418-381.253 6.859-379.274 8.837-376.833 8.837H0C2.441 8.837 4.42 6.859 4.42 4.418 4.42 1.978 2.441 0 0 0" fill="#ed1c24"/>
<path transform="matrix(1,0,0,-1,2863.2034,557.63308)" d="M0 0H-376.833C-379.274 0-381.253 1.978-381.253 4.418-381.253 6.859-379.274 8.837-376.833 8.837H0C2.441 8.837 4.42 6.859 4.42 4.418 4.42 1.978 2.441 0 0 0" fill="#ed1c24"/>
<path transform="matrix(1,0,0,-1,2863.2034,540.85757)" d="M0 0H-376.833C-379.274 0-381.253 1.978-381.253 4.418-381.253 6.859-379.274 8.837-376.833 8.837H0C2.441 8.837 4.42 6.859 4.42 4.418 4.42 1.978 2.441 0 0 0" fill="#ed1c24"/>
</g>
</g>
</svg>
